<?xml version="1.0" standalone="no"?>
<!DOCTYPE svg PUBLIC "-//W3C//DTD SVG 20010904//EN"
 "http://www.w3.org/TR/2001/REC-SVG-20010904/DTD/svg10.dtd">
<svg version="1.0" xmlns="http://www.w3.org/2000/svg"
 width="512.000000pt" height="512.000000pt" viewBox="0 0 512.000000 512.000000"
 preserveAspectRatio="xMidYMid meet">

<g transform="translate(0.000000,512.000000) scale(0.100000,-0.100000)"
fill="#000000" stroke="none">
<path d="M2120 4944 c-384 -46 -697 -158 -991 -353 -504 -334 -842 -857 -944
-1461 -23 -133 -31 -422 -16 -562 35 -319 136 -626 293 -886 362 -599 967
-984 1657 -1052 556 -55 1135 120 1567 472 l81 66 489 -490 c269 -269 501
-496 516 -504 67 -35 149 -5 178 66 28 67 26 69 -509 604 l-499 499 63 77
c311 375 485 865 485 1365 0 731 -358 1399 -968 1805 -252 168 -544 283 -852
336 -91 15 -469 28 -550 18z m376 -245 c678 -66 1257 -466 1555 -1074 237
-485 257 -1059 52 -1560 -241 -594 -762 -1027 -1398 -1161 -165 -35 -475 -44
-645 -20 -576 84 -1074 412 -1377 908 -449 736 -345 1694 251 2316 409 427
990 647 1562 591z"/>
</g>
</svg>
